<?xml version="1.0" encoding="iso-8859-1"?>
<!-- Generator: Adobe Illustrator 19.0.0, SVG Export Plug-In . SVG Version: 6.00 Build 0)  -->
<svg version="1.1" id="Capa_1" xmlns="http://www.w3.org/2000/svg" xmlns:xlink="http://www.w3.org/1999/xlink" x="0px" y="0px"
	 viewBox="0 0 512 512" style="enable-background:new 0 0 512 512;" xml:space="preserve">
<path style="fill:#435256;" d="M504.334,63.673L448.327,7.666C443.419,2.757,436.762,0,429.82,0h-39.553v15.453H55.006V0H26.173
	C11.718,0,0,11.718,0,26.173v459.654C0,500.282,11.718,512,26.173,512h459.654C500.282,512,512,500.282,512,485.827V82.18
	C512,75.238,509.242,68.581,504.334,63.673z"/>
<path style="fill:#2D3B3D;" d="M504.334,63.673L448.327,7.666C443.419,2.757,436.762,0,429.82,0h-39.553v4.408
	c1.417,0.946,2.749,2.035,3.971,3.258l56.007,56.007c4.908,4.908,7.666,11.566,7.666,18.507v403.647
	c0,14.455-11.718,26.173-26.173,26.173h54.089C500.282,512,512,500.282,512,485.827V82.18C512,75.238,509.242,68.581,504.334,63.673
	z"/>
<path style="fill:#A7AEEE;" d="M53.054,512h405.891V301.769c0-13.716-11.119-24.834-24.834-24.834H77.889
	c-13.716,0-24.834,11.119-24.834,24.834L53.054,512L53.054,512z"/>
<path style="fill:#8C99E5;" d="M434.111,276.935h-28.329c0.069,0.755,0.109,1.517,0.109,2.29v190.85
	c0,10.704-8.677,19.381-19.381,19.381H53.054V512h405.891V301.769C458.946,288.053,447.827,276.935,434.111,276.935z"/>
<path style="fill:#9AADAF;" d="M55.006,15.453v133.63c0,15.017,12.174,27.19,27.19,27.19h280.88c15.017,0,27.19-12.174,27.19-27.19
	V15.453H55.006z"/>
<path style="fill:#8A9FA0;" d="M363.077,160.97H82.196c-15.017,0-27.19-12.174-27.19-27.19v15.302
	c0,15.017,12.174,27.19,27.19,27.19h280.88c15.017,0,27.19-12.174,27.19-27.19V133.78
	C390.267,148.797,378.093,160.97,363.077,160.97z"/>
<path style="fill:#DFEAEF;" d="M390.267,149.082V15.453H131.348v160.82h231.729C378.093,176.273,390.267,164.099,390.267,149.082z"
	/>
<path style="fill:#BFCFD6;" d="M336.493,15.453V134.53c0,15.017-12.173,27.19-27.19,26.44H131.348v15.302h231.729
	c15.017,0,27.19-12.174,27.19-27.19V15.453H336.493z"/>
<path style="fill:#8A9FA0;" d="M330.581,144.054H296.8c-4.895,0-8.864-3.968-8.864-8.864V49.213c0-4.895,3.968-8.864,8.864-8.864
	h33.781c4.895,0,8.864,3.968,8.864,8.864v85.977C339.445,140.085,335.476,144.054,330.581,144.054z"/>
<path style="fill:#FFFFFF;" d="M97.696,347.21h316.609c4.267,0,7.726-3.459,7.726-7.726s-3.459-7.726-7.726-7.726H97.696
	c-4.267,0-7.726,3.459-7.726,7.726C89.969,343.751,93.429,347.21,97.696,347.21z"/>
<path style="fill:#F2F2F2;" d="M414.304,347.21c4.267,0,7.726-3.459,7.726-7.726s-3.459-7.726-7.726-7.726h-8.413v15.453
	L414.304,347.21L414.304,347.21z"/>
<path style="fill:#FFFFFF;" d="M414.304,402.153H97.696c-4.267,0-7.726,3.459-7.726,7.726s3.459,7.726,7.726,7.726h316.609
	c4.267,0,7.726-3.459,7.726-7.726C422.031,405.612,418.571,402.153,414.304,402.153z"/>
<path style="fill:#F2F2F2;" d="M414.304,417.606c4.267,0,7.726-3.459,7.726-7.726s-3.459-7.726-7.726-7.726h-8.413v15.453
	L414.304,417.606L414.304,417.606z"/>
<path style="fill:#FFFFFF;" d="M414.304,472.549H97.696c-4.267,0-7.726,3.459-7.726,7.726s3.459,7.726,7.726,7.726h316.609
	c4.267,0,7.726-3.459,7.726-7.726C422.031,476.008,418.571,472.549,414.304,472.549z"/>
<path style="fill:#F2F2F2;" d="M414.304,488.002c4.267,0,7.726-3.459,7.726-7.726s-3.459-7.726-7.726-7.726h-8.588
	c-0.896,7.015-5.528,12.856-11.851,15.453L414.304,488.002L414.304,488.002z"/>
<g>
</g>
<g>
</g>
<g>
</g>
<g>
</g>
<g>
</g>
<g>
</g>
<g>
</g>
<g>
</g>
<g>
</g>
<g>
</g>
<g>
</g>
<g>
</g>
<g>
</g>
<g>
</g>
<g>
</g>
</svg>
