<svg id="Capa_1" enable-background="new 0 0 512 512" height="512" viewBox="0 0 512 512" width="512" xmlns="http://www.w3.org/2000/svg" xmlns:xlink="http://www.w3.org/1999/xlink"><linearGradient id="SVGID_1_" gradientUnits="userSpaceOnUse" x1="256" x2="256" y1="512" y2="0"><stop offset="0" stop-color="#ffbef9"/><stop offset="1" stop-color="#fff1ff"/></linearGradient><linearGradient id="SVGID_2_" gradientUnits="userSpaceOnUse" x1="256" x2="256" y1="389.5" y2="122.5"><stop offset="0" stop-color="#ff81ff"/><stop offset="1" stop-color="#a93aff"/></linearGradient><g><g><circle cx="256" cy="256" fill="url(#SVGID_1_)" r="256"/></g><g><g><path d="m197.796 297.467 10.392 20.833h95.624l10.392-20.842c4.528-9.1 13.671-14.758 23.837-14.758h67.205l-33.984-153.23c-.902-4.076-4.511-6.97-8.674-6.97h-213.176c-4.164 0-7.772 2.894-8.674 6.97l-33.984 153.23h67.205c10.167 0 19.309 5.658 23.837 14.767zm16.394-83.36 35.519-35.589c3.43-3.446 9.098-3.5 12.582 0l35.519 35.589c3.47 3.477 3.47 9.109 0 12.585s-9.09 3.477-12.56 0l-20.367-20.407v67.515c0 4.919-3.973 8.9-8.882 8.9s-8.882-3.981-8.882-8.9v-67.515l-20.367 20.407c-3.47 3.477-9.091 3.477-12.56 0s-3.471-9.108-.002-12.585zm123.85 86.393c-3.4 0-6.436 1.877-7.946 4.911l-12.855 25.77c-1.509 3.016-4.58 4.919-7.946 4.919h-106.587c-3.366 0-6.436-1.904-7.946-4.919l-12.855-25.761c-1.509-3.042-4.545-4.919-7.946-4.919h-68.959v80.1c0 4.919 3.973 8.9 8.882 8.9h284.235c4.91 0 8.882-3.981 8.882-8.9v-80.1h-68.959z" fill="url(#SVGID_2_)"/></g></g></g></svg>